<svg xmlns="http://www.w3.org/2000/svg" width="200" height="96" viewBox="0 0 80.25 38.54" shape-rendering="geometricPrecision" image-rendering="optimizeQuality" fill-rule="evenodd"><g fill="#3f6932"><g fill-rule="nonzero"><path d="M73.57 27.16l1.2-3.1 1.22 3.1h-2.43zm2.17-6.02h-1.8l-4.3 10.02h2.4l.82-2.12h3.85l.86 2.12h2.47l-4.32-10.02zm-69.64 0H4.3L0 31.16h2.4l2.72-7.1 2.8 7.1h2.47zm14.13 4.33l-1.66-.6c-.57-.23-.86-.54-.86-.93a.84.84 0 0 1 .46-.77 2.09 2.09 0 0 1 1.02-.26 2.51 2.51 0 0 1 .89.17c.3.1.53.28.7.5l1.5-1.67c-.78-.7-1.8-1.03-3.03-1.03-.5 0-.98.07-1.43.2s-.86.35-1.2.63c-.36.28-.64.63-.84 1.03a3.11 3.11 0 0 0-.31 1.38c0 .75.2 1.3.62 1.7s1.04.72 1.88 1l1.7.66c.3.15.45.43.45.82 0 .33-.16.6-.47.78a2.06 2.06 0 0 1-1.05.28c-.37 0-.72-.1-1.06-.26-.33-.17-.62-.4-.84-.7l-1.56 1.72c.9.84 2 1.26 3.33 1.26.7 0 1.35-.12 1.93-.37a3.08 3.08 0 0 0 1.38-1.11c.34-.5.52-1.1.52-1.8 0-.8-.2-1.38-.62-1.78s-.9-.7-1.43-.87zm7.84-2.37h2.83v8.07h2.18V23.1h2.84v-1.95h-7.85zm16.3.07h4.55v-2.03H42.2v10.02h7v-2.04h-4.8z"/><path d="M44.37 27.08h4.3v-2.03h-4.3v-1.88h4.55v-2.03H42.2v10.02h7v-2.04h-4.8zM61.7 29.1c-.35.18-.74.28-1.17.28a2.54 2.54 0 0 1-1.42-.42 2.78 2.78 0 0 1-1-1.16c-.25-.5-.37-1.05-.37-1.66 0-.6.12-1.15.37-1.65a2.88 2.88 0 0 1 1.03-1.15 2.68 2.68 0 0 1 1.47-.42c.8 0 1.43.28 1.88.83l1.67-1.4c-.4-.5-.9-.9-1.5-1.12-.6-.23-1.22-.35-1.85-.35-.76 0-1.47.12-2.13.36a4.84 4.84 0 0 0-1.71 1.06c-.48.47-.86 1.03-1.12 1.68-.26.66-.4 1.37-.4 2.15 0 1.06.23 1.98.68 2.77.45.8 1.1 1.4 1.9 1.85.82.43 1.74.65 2.76.65.7 0 1.4-.15 2.04-.45s1.15-.72 1.54-1.3l-1.82-1.37c-.23.35-.52.6-.87.8z"/></g><path d="M64.18 5.66L53.43 18.64c-14-7.82-33.6-2.32-38.16-.04 1.1-.78 2.7-1.9 4.78-3.2 6.83-2.42 20.1-5.2 32.08.15l8.43-10.18a66.83 66.83 0 0 1 3.62.29z"/></g><path d="M60.18 0l-9.3 11.05c-12.7-3.3-26.8 1.44-28.62 2.64A79.66 79.66 0 0 1 60.18 0zM9.33 26.63L7.16 29.3c-2.95-.8-6.22.35-6.64.64a18 18 0 0 1 8.8-3.32z" fill="#a8955e"/><path d="M18.02 35.94l-.48.4c-.13-.16-.3-.23-.54-.23a.74.74 0 0 0-.42.12.8.8 0 0 0-.3.33 1.05 1.05 0 0 0-.11.47 1.06 1.06 0 0 0 .11.48.85.85 0 0 0 .29.33.73.73 0 0 0 .41.12.73.73 0 0 0 .33-.08c.1-.05.2-.13.25-.23l.53.4c-.12.17-.26.3-.45.38-.18.08-.38.12-.58.12-.3 0-.56-.06-.8-.18a1.47 1.47 0 0 1-.55-.53 1.61 1.61 0 0 1-.2-.8c0-.22.04-.43.1-.62.08-.2.18-.35.32-.48a1.39 1.39 0 0 1 .5-.3c.18-.07.4-.1.6-.1.18 0 .35.04.53.1a1.13 1.13 0 0 1 .43.32zm1.56 1.1c0-.22.04-.43.1-.62a1.37 1.37 0 0 1 .33-.48 1.31 1.31 0 0 1 .5-.3 1.74 1.74 0 0 1 1.22 0 1.39 1.39 0 0 1 .5.3 1.23 1.23 0 0 1 .32.48c.08.18.12.4.12.62a1.61 1.61 0 0 1-.2.8 1.34 1.34 0 0 1-.55.53c-.23.12-.5.18-.8.18s-.56-.06-.8-.18a1.34 1.34 0 0 1-.55-.53 1.61 1.61 0 0 1-.2-.8zm.65 0c0 .27.1.5.25.67.16.17.37.26.64.26a.85.85 0 0 0 .64-.26c.16-.18.24-.4.24-.67 0-.17-.03-.33-.1-.47a.73.73 0 0 0-.31-.34c-.13-.08-.3-.1-.46-.1s-.33.03-.46.1a.81.81 0 0 0-.32.34 1.05 1.05 0 0 0-.11.47zm4.16 1.44V35.6h.85l1.22 2v-2h.63v2.88h-.82l-1.25-2.05v2.05h-.63zm5.14 0v-2.32h-.82v-.56h2.26v.56h-.82v2.32h-.62zm2.4 0l1.23-2.88h.52l1.24 2.88h-.7l-.25-.6h-1.1l-.24.6h-.7zm1.82-1.15l-.35-.9-.35.9h.7zm2.76 1.15V35.6h1.06c.3 0 .56.06.75.16.2.1.3.3.3.58 0 .15-.04.3-.13.4a.69.69 0 0 1-.35.24V37c.18.02.33.1.45.23.1.13.17.3.17.47 0 .2-.05.34-.16.46-.1.12-.23.2-.4.26-.16.06-.34.08-.52.08H36.5zm.63-2.34v.6h.45a.53.53 0 0 0 .28-.07c.08-.05.12-.13.12-.24s-.04-.2-.12-.23a.66.66 0 0 0-.3-.07h-.43zm0 1.15v.66h.56a.47.47 0 0 0 .3-.1c.08-.05.12-.14.12-.25 0-.08-.02-.15-.08-.2-.05-.04-.1-.08-.18-.1s-.16-.03-.25-.03h-.47zm3.28-1.7h.62v2.88h-.62V35.6zm0 2.88zm2.53 0V35.6h.62v2.3h1.17v.58h-1.8zm3.43-2.88H47v2.88h-.63V35.6zm0 2.88zm2.5 0V35.6h.94a2.71 2.71 0 0 1 .66.08c.2.06.38.14.53.26.16.1.28.26.36.45.1.18.13.4.13.66a1.51 1.51 0 0 1-.12.61 1.52 1.52 0 0 1-.35.45 1.8 1.8 0 0 1-.51.28c-.2.06-.4.1-.62.1h-1zm.62-2.3v1.7h.33c.3 0 .56-.07.75-.2.18-.14.27-.37.27-.67 0-.27-.1-.48-.28-.62s-.42-.2-.7-.2h-.37zm3.44 2.3l1.23-2.88h.52l1.24 2.88h-.7l-.24-.6h-1.1l-.24.6h-.7zm1.82-1.15l-.35-.9-.34.9h.7zm2.76 1.15V35.6h.95a2.71 2.71 0 0 1 .66.08c.2.06.38.14.53.26.16.1.28.26.36.45.1.18.13.4.13.66a1.51 1.51 0 0 1-.12.61 1.52 1.52 0 0 1-.35.45c-.15.12-.32.2-.52.28-.2.06-.4.1-.6.1h-1.03zm.63-2.3v1.7h.33c.3 0 .56-.07.74-.2.2-.14.28-.37.28-.67 0-.27-.1-.48-.28-.62s-.42-.2-.7-.2h-.37zm3.76 2.3V35.6h1.93v.6h-1.3v.54h1.24v.58h-1.24v.6h1.4v.58h-2zm16.86-19h-.2v-.34h.22c.12 0 .26.02.26.17 0 .17-.16.17-.28.17zm1.36-.48a1.491 1.491 0 1 0-2.73 1.2 1.47 1.47 0 0 0 1.18.87v-.32a1.17 1.17 0 0 1-.9-1.58 1.06 1.06 0 0 1 .62-.64c.28-.13.6-.13.9-.02a1.23 1.23 0 0 1 .65.62c.06.15.1.3.1.47 0 .3-.13.5-.36.55a.39.39 0 0 1-.45-.25l-.04-.1c-.01-.02-.02-.05-.04-.08h.03c.2-.04.33-.2.33-.42 0-.35-.26-.46-.57-.46h-.6v1.52h.33v-.6h.14l.08.18.03.08a.71.71 0 0 0 .8.44c.3-.05.62-.3.62-.86a1.53 1.53 0 0 0-.12-.6z" fill="#3f6932" fill-rule="nonzero"/></svg>